<svg xmlns="http://www.w3.org/2000/svg" viewBox="0 0 59.71 97.48"><defs><style>.cls-1{fill:#253266;}</style></defs><title>Asset 2</title><g id="Layer_2" data-name="Layer 2"><g id="Capa_1" data-name="Capa 1"><path class="cls-1" d="M52.37,14a1.82,1.82,0,0,1,0-2.14,7.85,7.85,0,0,0-1.9-10.15,7.43,7.43,0,0,0-10,.43,1.91,1.91,0,0,1-2.26.42C21.2-3.18,4.8,9.37,3.63,25.63c-1.15,16,11.85,28.92,26.3,28.52A32.34,32.34,0,0,0,33.62,54,26.55,26.55,0,0,0,52.37,14ZM33.42,50.33A22.72,22.72,0,0,1,7.08,27.71c0-15.52,15-26.68,29.52-22C37.59,6,38,6.29,38,7.55a7.7,7.7,0,0,0,9.86,7.86c1-.26,1.31,0,1.73.7C57.54,30.09,49.36,47.84,33.42,50.33Z"/><path class="cls-1" d="M29.94,13.72A14,14,0,0,0,16,27.58a13.84,13.84,0,1,0,27.67.18A14,14,0,0,0,29.94,13.72Z"/><path class="cls-1" d="M0,76.64.84,75A7.24,7.24,0,0,0,4.77,76.2c1.87,0,2.65-.57,2.65-1.52,0-2.51-7.06-.34-7.06-4.79,0-2,1.79-3.35,4.66-3.35a8.17,8.17,0,0,1,4.07,1l-.87,1.61A5.78,5.78,0,0,0,5,68.27c-1.77,0-2.64.65-2.64,1.54,0,2.64,7.09.48,7.09,4.83,0,2-1.86,3.31-4.83,3.31A8.05,8.05,0,0,1,0,76.64Z"/><path class="cls-1" d="M22,72.91H13a3.78,3.78,0,0,0,4,3.27,4.16,4.16,0,0,0,3.22-1.35l1.12,1.31A5.61,5.61,0,0,1,17,78c-3.6,0-6-2.38-6-5.72a5.48,5.48,0,0,1,5.61-5.69,5.39,5.39,0,0,1,5.53,5.76A4.42,4.42,0,0,1,22,72.91ZM13,71.45h7.17a3.49,3.49,0,0,0-3.59-3.2A3.48,3.48,0,0,0,13,71.45Z"/><path class="cls-1" d="M35.57,66.65V76.3c0,4-2,5.74-5.8,5.74a8.25,8.25,0,0,1-5.33-1.67l1-1.56a6.78,6.78,0,0,0,4.3,1.46c2.63,0,3.84-1.22,3.84-3.75v-.89a5.12,5.12,0,0,1-4,1.73,5.42,5.42,0,1,1,0-10.82,5.09,5.09,0,0,1,4.13,1.84V66.65Zm-2,5.29a3.57,3.57,0,0,0-3.84-3.63,3.65,3.65,0,1,0,0,7.28A3.6,3.6,0,0,0,33.59,71.94Z"/><path class="cls-1" d="M49.84,66.65V77.82H47.92V76.14A4.53,4.53,0,0,1,44.13,78c-2.89,0-4.81-1.58-4.81-4.87V66.65h2v6.2c0,2.19,1.1,3.29,3,3.29,2.11,0,3.46-1.31,3.46-3.72V66.65Z"/><path class="cls-1" d="M59.71,66.54v2a3.78,3.78,0,0,0-.46,0c-2.18,0-3.53,1.33-3.53,3.78v5.56h-2V66.65h1.94v1.87C56.36,67.22,57.75,66.54,59.71,66.54Z"/><path class="cls-1" d="M9.72,90.61v6.75H7.8V95.88a4.15,4.15,0,0,1-3.67,1.6C1.6,97.48,0,96.13,0,94.19c0-1.79,1.16-3.27,4.49-3.27H7.7v-.4c0-1.71-1-2.7-3-2.7A5.68,5.68,0,0,0,1.16,89L.32,87.51a7.41,7.41,0,0,1,4.61-1.44C8,86.07,9.72,87.55,9.72,90.61Zm-2,3.33V92.38H4.58c-2,0-2.58.78-2.58,1.73,0,1.12.93,1.81,2.47,1.81A3.24,3.24,0,0,0,7.7,93.94Z"/><path class="cls-1" d="M19.76,96.7a3.8,3.8,0,0,1-2.45.78A3.18,3.18,0,0,1,13.77,94V87.84h-1.9V86.18h1.9V83.73h2v2.45H19v1.66H15.79V93.9a1.65,1.65,0,0,0,1.75,1.87,2.58,2.58,0,0,0,1.58-.52Z"/><path class="cls-1" d="M20.79,91.77a5.56,5.56,0,0,1,5.82-5.7,5.71,5.71,0,1,1,0,11.41A5.58,5.58,0,0,1,20.79,91.77Zm9.57,0a3.77,3.77,0,1,0-7.53,0,3.77,3.77,0,1,0,7.53,0Z"/><path class="cls-1" d="M53.77,90.92v6.44h-2v-6.2c0-2.2-1.05-3.27-2.89-3.27-2,0-3.35,1.28-3.35,3.71v5.76h-2v-6.2c0-2.2-1.06-3.27-2.89-3.27-2,0-3.36,1.28-3.36,3.71v5.76h-2V86.18h1.94v1.66A4.55,4.55,0,0,1,41,86.07a4.14,4.14,0,0,1,3.88,2.07,5,5,0,0,1,4.3-2.07C51.91,86.07,53.77,87.63,53.77,90.92Z"/></g></g></svg>