<svg id="Capa_1" data-name="Capa 1" xmlns="http://www.w3.org/2000/svg" viewBox="0 0 224.37 33.82"><defs><style>.cls-1{fill:#fff;}</style></defs><title>logo-seguratom</title><path class="cls-1" d="M1.69,23.77l1.57-3A13.3,13.3,0,0,0,10.55,23c3.5,0,4.95-1.06,4.95-2.83,0-4.67-13.15-.62-13.15-8.9C2.35,7.49,5.69,5,11,5A15.12,15.12,0,0,1,18.6,6.86L17,9.84a10.9,10.9,0,0,0-6-1.65c-3.3,0-4.91,1.22-4.91,2.87,0,4.9,13.19.9,13.19,9,0,3.76-3.46,6.16-9,6.16C6.83,26.21,3.41,25.15,1.69,23.77Z"/><path class="cls-1" d="M42.69,16.83H25.82c.47,3.65,3.41,6.08,7.53,6.08a7.76,7.76,0,0,0,6-2.51l2.08,2.43a10.45,10.45,0,0,1-8.2,3.38c-6.71,0-11.19-4.44-11.19-10.64A10.19,10.19,0,0,1,32.49,5c6,0,10.28,4.31,10.28,10.71C42.77,16,42.73,16.47,42.69,16.83ZM25.82,14.12H39.16a6.48,6.48,0,0,0-6.67-6A6.48,6.48,0,0,0,25.82,14.12Z"/><path class="cls-1" d="M67.89,5.17v18c0,7.33-3.73,10.67-10.79,10.67-3.81,0-7.65-1.06-9.93-3.1L49,27.81a12.71,12.71,0,0,0,8,2.71c4.9,0,7.14-2.27,7.14-7V21.89a9.5,9.5,0,0,1-7.49,3.22c-6,0-10.56-4.08-10.56-10.09S50.62,5,56.63,5a9.51,9.51,0,0,1,7.69,3.41V5.17ZM64.2,15c0-4-3-6.75-7.14-6.75S49.88,11,49.88,15s3,6.79,7.18,6.79S64.2,19,64.2,15Z"/><path class="cls-1" d="M94.46,5.17V26H90.88V22.83a8.46,8.46,0,0,1-7.06,3.38c-5.37,0-8.94-2.95-8.94-9.07v-12h3.76V16.71c0,4.08,2,6.12,5.61,6.12,3.93,0,6.44-2.43,6.44-6.9V5.17Z"/><path class="cls-1" d="M112.82,5V8.63a6.48,6.48,0,0,0-.86,0c-4,0-6.55,2.47-6.55,7V26h-3.77V5.17h3.61v3.5C106.58,6.23,109.17,5,112.82,5Z"/><path class="cls-1" d="M133.9,13.41V26h-3.58V23.22c-1.25,1.89-3.57,3-6.82,3-4.71,0-7.69-2.52-7.69-6.13,0-3.33,2.15-6.08,8.35-6.08h6v-.74c0-3.18-1.85-5-5.57-5a10.55,10.55,0,0,0-6.6,2.24l-1.57-2.82A13.84,13.84,0,0,1,125,5C130.68,5,133.9,7.72,133.9,13.41Zm-3.77,6.2v-2.9h-5.81c-3.73,0-4.79,1.45-4.79,3.22,0,2.08,1.73,3.37,4.59,3.37S129.19,22,130.13,19.61Z"/><path class="cls-1" d="M152.58,24.75A7.14,7.14,0,0,1,148,26.21c-4.19,0-6.59-2.32-6.59-6.52V8.27H137.9V5.17h3.53V.62h3.77V5.17h6v3.1h-6V19.54c0,2.23,1.18,3.49,3.26,3.49a4.81,4.81,0,0,0,2.94-1Z"/><path class="cls-1" d="M223,14V26h-3.77V14.43c0-4.08-2-6.08-5.38-6.08-3.76,0-6.24,2.4-6.24,6.91V26H203.8V14.43c0-4.08-2-6.08-5.38-6.08-3.76,0-6.24,2.4-6.24,6.91V26h-3.76V5.17H192v3.1A8.42,8.42,0,0,1,199.21,5c3.18,0,5.84,1.25,7.22,3.84a9.37,9.37,0,0,1,8-3.84C219.49,5,223,7.88,223,14Z"/><path class="cls-1" d="M181.18,8.76a.92.92,0,0,1,0-1.08,4,4,0,0,0-1-5.12,3.75,3.75,0,0,0-5,.22,1,1,0,0,1-1.14.21A13.29,13.29,0,0,0,156.6,14.63c-.58,8,6,14.58,13.26,14.38a16.43,16.43,0,0,0,1.86-.1A13.39,13.39,0,0,0,181.18,8.76Zm-9.56,18.32a11.45,11.45,0,0,1-13.28-11.4A11.52,11.52,0,0,1,173.22,4.57c.5.17.73.3.7.94a3.88,3.88,0,0,0,5,4c.49-.13.66,0,.87.35A11.58,11.58,0,0,1,171.62,27.08Z"/><path class="cls-1" d="M169.87,8.62a7.05,7.05,0,0,0-7,7,7,7,0,1,0,14,.09A7,7,0,0,0,169.87,8.62Z"/></svg>