<svg xmlns="http://www.w3.org/2000/svg" viewBox="0 0 526.12 78.93"><defs><style>.cls-1{fill:#253266;}</style></defs><title>Asset 1</title><g id="Layer_2" data-name="Layer 2"><g id="Capa_1" data-name="Capa 1"><path class="cls-1" d="M0,55.05,3.73,48c4.2,3,10.92,5.13,17.36,5.13,8.3,0,11.75-2.52,11.75-6.72,0-11.1-31.25-1.49-31.25-21.18,0-8.86,7.93-14.83,20.62-14.83,6.43,0,13.71,1.68,18,4.48l-3.82,7.09A25.79,25.79,0,0,0,22.11,18c-7.83,0-11.66,2.89-11.66,6.81C10.45,36.48,41.8,27,41.8,46.19c0,9-8.21,14.64-21.37,14.64C12.22,60.83,4.11,58.31,0,55.05Z"/><path class="cls-1" d="M97.51,38.53H57.39C58.51,47.21,65.5,53,75.3,53c5.79,0,10.64-2,14.28-6l4.94,5.79c-4.48,5.22-11.29,8-19.5,8-15.95,0-26.59-10.54-26.59-25.28S59,10.36,73.25,10.36,97.69,20.62,97.69,35.83C97.69,36.57,97.6,37.7,97.51,38.53ZM57.39,32.1H89.11A15.42,15.42,0,0,0,73.25,17.91,15.41,15.41,0,0,0,57.39,32.1Z"/><path class="cls-1" d="M157.42,10.82V53.56c0,17.44-8.87,25.37-25.66,25.37-9,0-18.2-2.51-23.61-7.37l4.29-6.9c4.57,3.92,11.76,6.44,19,6.44,11.66,0,17-5.41,17-16.61V50.57c-4.29,5.13-10.73,7.65-17.82,7.65-14.28,0-25.1-9.7-25.1-24s10.82-23.88,25.1-23.88c7.37,0,14.09,2.7,18.28,8.11V10.82Zm-8.78,23.42c0-9.61-7.09-16-17-16s-17.07,6.43-17.07,16,7.09,16.14,17.07,16.14S148.64,43.76,148.64,34.24Z"/><path class="cls-1" d="M220.59,10.82V60.27H212.1V52.81c-3.64,5.13-9.8,8-16.8,8-12.78,0-21.27-7-21.27-21.55V10.82h9V38.25c0,9.71,4.85,14.56,13.34,14.56,9.33,0,15.3-5.79,15.3-16.42V10.82Z"/><path class="cls-1" d="M264.26,10.36V19a16.4,16.4,0,0,0-2.05-.09c-9.61,0-15.58,5.88-15.58,16.7V60.27h-9V10.82h8.58v8.31C249.43,13.34,255.58,10.36,264.26,10.36Z"/><path class="cls-1" d="M314.37,30.42V60.27h-8.49V53.74c-3,4.48-8.49,7.09-16.24,7.09-11.19,0-18.28-6-18.28-14.55,0-7.93,5.13-14.46,19.87-14.46h14.18V30c0-7.55-4.38-11.94-13.25-11.94-5.88,0-11.85,2-15.67,5.32l-3.73-6.72c5.13-4.1,12.5-6.34,20.43-6.34C306.72,10.36,314.37,16.89,314.37,30.42Zm-9,14.74V38.25H291.6c-8.86,0-11.38,3.46-11.38,7.66,0,4.94,4.1,8,10.92,8S303.17,50.85,305.41,45.16Z"/><path class="cls-1" d="M358.79,57.38c-2.71,2.33-6.81,3.45-10.82,3.45-10,0-15.68-5.5-15.68-15.48V18.2h-8.4V10.82h8.4V0h9V10.82h14.18V18.2H341.25V45c0,5.32,2.8,8.31,7.74,8.31a11.26,11.26,0,0,0,7-2.34Z"/><path class="cls-1" d="M526.12,31.82V60.27h-9V32.84c0-9.7-4.67-14.46-12.78-14.46-9,0-14.84,5.69-14.84,16.42V60.27h-9V32.84c0-9.7-4.66-14.46-12.78-14.46-9,0-14.83,5.69-14.83,16.42V60.27h-9V10.82h8.58V18.2c3.55-5,9.61-7.84,17.08-7.84s13.9,3,17.17,9.14c3.73-5.6,10.63-9.14,19-9.14C517.91,10.36,526.12,17.26,526.12,31.82Z"/><path class="cls-1" d="M426.8,19.35a2.18,2.18,0,0,1,0-2.56A9.44,9.44,0,0,0,424.53,4.6a8.92,8.92,0,0,0-11.95.53,2.29,2.29,0,0,1-2.7.49c-20.47-6.88-40.13,8.18-41.53,27.68C367,52.44,382.55,68,399.88,67.49a38.32,38.32,0,0,0,4.43-.23C426.88,63.53,438.29,39.22,426.8,19.35ZM404.07,62.91a27.23,27.23,0,0,1-31.58-27.12c0-18.61,18-32,35.39-26.39,1.19.38,1.73.7,1.66,2.21A9.22,9.22,0,0,0,421.36,21c1.17-.3,1.57,0,2.08.85C433,38.64,423.18,59.93,404.07,62.91Z"/><path class="cls-1" d="M399.9,19a16.75,16.75,0,0,0-16.7,16.62,16.6,16.6,0,1,0,33.19.21A16.75,16.75,0,0,0,399.9,19Z"/></g></g></svg>