<svg xmlns="http://www.w3.org/2000/svg" viewBox="0 0 37.75 38.87"><defs><style>.cls-1{fill:#253266;}</style></defs><title>Asset 4</title><g id="Layer_2" data-name="Layer 2"><g id="Capa_1" data-name="Capa 1"><path class="cls-1" d="M35,10.05a1.29,1.29,0,0,1,0-1.53,5.64,5.64,0,0,0-1.36-7.29,5.33,5.33,0,0,0-7.15.31,1.37,1.37,0,0,1-1.62.29A18.94,18.94,0,0,0,.05,18.4c-.82,11.45,8.5,20.76,18.88,20.47a26,26,0,0,0,2.65-.14A19.06,19.06,0,0,0,35,10.05ZM21.44,36.13A16.31,16.31,0,0,1,2.53,19.89C2.53,8.75,13.28.74,23.71,4.1c.72.23,1,.42,1,1.32a5.53,5.53,0,0,0,7.08,5.64c.7-.18.94,0,1.24.5A16.49,16.49,0,0,1,21.44,36.13Z"/><path class="cls-1" d="M18.94,9.85a10,10,0,0,0-10,10,9.94,9.94,0,1,0,19.87.12A10,10,0,0,0,18.94,9.85Z"/></g></g></svg>